<svg width="100" height="35" viewBox="0 0 100 35" fill="none" xmlns="http://www.w3.org/2000/svg">
<path d="M9.64 6.88V11.5H9.8C10.1467 11.5 10.4533 11.42 10.72 11.26C11 11.0867 11.2333 10.86 11.42 10.58C11.6067 10.3 11.7467 9.98667 11.84 9.64C11.9333 9.28 11.98 8.91333 11.98 8.54C11.98 8.28667 11.9467 8.00667 11.88 7.7C11.8133 7.39333 11.6733 7.11333 11.46 6.86C11.26 6.59333 10.96 6.37333 10.56 6.2C10.1733 6.01333 9.65333 5.92 9 5.92C8.38667 5.92 7.82 6.00667 7.3 6.18C6.79333 6.35333 6.35333 6.61333 5.98 6.96C5.60667 7.29333 5.31333 7.71333 5.1 8.22C4.88667 8.71333 4.78 9.28667 4.78 9.94C4.78 10.3133 4.80667 10.6333 4.86 10.9C4.92667 11.1533 5 11.3667 5.08 11.54C5.16 11.7 5.23333 11.8267 5.3 11.92C5.38 12.0133 5.43333 12.0867 5.46 12.14C4.66 12.14 4.02667 11.9533 3.56 11.58C3.09333 11.2067 2.86 10.62 2.86 9.82C2.86 9.16667 3.01333 8.55333 3.32 7.98C3.62667 7.39333 4.06 6.88 4.62 6.44C5.18 6 5.84667 5.65333 6.62 5.4C7.40667 5.13333 8.27333 5 9.22 5C9.94 5 10.6 5.08 11.2 5.24C11.8 5.4 12.3133 5.63333 12.74 5.94C13.18 6.24667 13.52 6.62667 13.76 7.08C14 7.53333 14.12 8.04667 14.12 8.62C14.12 9.20667 13.9867 9.76667 13.72 10.3C13.4667 10.8333 13.0867 11.2733 12.58 11.62C13.2333 11.78 13.72 12.1133 14.04 12.62C14.3733 13.1267 14.54 13.8667 14.54 14.84C14.54 15.0267 14.5333 15.26 14.52 15.54C14.5067 15.8067 14.4933 16.08 14.48 16.36C14.48 16.64 14.4733 16.9067 14.46 17.16C14.4467 17.4133 14.44 17.62 14.44 17.78C14.44 18.4333 14.54 18.9333 14.74 19.28C14.9533 19.6267 15.2333 19.8667 15.58 20C15.18 20.12 14.82 20.2067 14.5 20.26C14.18 20.3133 13.8933 20.34 13.64 20.34C12.9867 20.34 12.5067 20.1667 12.2 19.82C11.8933 19.46 11.74 18.8933 11.74 18.12C11.74 17.9333 11.7467 17.7 11.76 17.42C11.7733 17.14 11.7867 16.8467 11.8 16.54C11.8267 16.2333 11.8467 15.9333 11.86 15.64C11.8733 15.3333 11.88 15.06 11.88 14.82C11.88 14.0867 11.7667 13.5 11.54 13.06C11.3267 12.6067 10.9133 12.38 10.3 12.38C10.0733 12.38 9.85333 12.4067 9.64 12.46V20H6.76V7.28L9.64 6.88ZM24.6683 10V16.8C24.6683 17.36 24.7416 17.7333 24.8883 17.92C25.0483 18.0933 25.3216 18.18 25.7083 18.18C26.0949 18.18 26.4149 18.0133 26.6683 17.68C26.9349 17.3467 27.0883 16.9267 27.1283 16.42H27.9683C27.8616 17.2333 27.6749 17.8867 27.4083 18.38C27.1416 18.86 26.8416 19.2333 26.5083 19.5C26.1749 19.7533 25.8349 19.92 25.4883 20C25.1416 20.08 24.8349 20.12 24.5683 20.12C23.8616 20.12 23.3216 19.96 22.9483 19.64C22.5883 19.3067 22.3349 18.8533 22.1883 18.28C22.0816 18.5067 21.9549 18.7333 21.8083 18.96C21.6616 19.1733 21.4816 19.3667 21.2683 19.54C21.0683 19.7133 20.8283 19.8533 20.5483 19.96C20.2816 20.0667 19.9683 20.12 19.6083 20.12C19.1816 20.12 18.7616 20.04 18.3483 19.88C17.9349 19.72 17.5549 19.46 17.2083 19.1C16.8749 18.74 16.6016 18.2667 16.3883 17.68C16.1883 17.08 16.0883 16.3467 16.0883 15.48C16.0883 14.8667 16.1549 14.2333 16.2883 13.58C16.4349 12.9267 16.6549 12.3267 16.9483 11.78C17.2549 11.2333 17.6483 10.7867 18.1283 10.44C18.6216 10.08 19.2149 9.9 19.9083 9.9C20.0683 9.9 20.2416 9.91333 20.4283 9.94C20.6149 9.95333 20.7949 10 20.9683 10.08C21.1416 10.1467 21.3016 10.2533 21.4483 10.4C21.5949 10.5333 21.7083 10.72 21.7883 10.96V10H24.6683ZM21.7883 11.92C21.7749 11.8667 21.7483 11.8 21.7083 11.72C21.6683 11.6267 21.6083 11.54 21.5283 11.46C21.4483 11.3667 21.3483 11.2933 21.2283 11.24C21.1083 11.1733 20.9683 11.14 20.8083 11.14C20.4883 11.14 20.2083 11.28 19.9683 11.56C19.7416 11.8267 19.5549 12.1667 19.4083 12.58C19.2749 12.98 19.1749 13.4267 19.1083 13.92C19.0416 14.4 19.0083 14.86 19.0083 15.3C19.0083 16.0067 19.0616 16.56 19.1683 16.96C19.2749 17.3467 19.4016 17.6333 19.5483 17.82C19.7083 17.9933 19.8749 18.1 20.0483 18.14C20.2216 18.1667 20.3683 18.18 20.4883 18.18C20.6349 18.18 20.7816 18.1467 20.9283 18.08C21.0883 18 21.2283 17.8867 21.3483 17.74C21.4816 17.5933 21.5883 17.4133 21.6683 17.2C21.7483 16.9733 21.7883 16.7133 21.7883 16.42V11.92ZM26.9556 25C26.609 25 26.269 24.9333 25.9356 24.8C25.589 24.68 25.2823 24.5067 25.0156 24.28C24.7356 24.0533 24.509 23.78 24.3356 23.46C24.1623 23.14 24.0756 22.78 24.0756 22.38C24.0756 22.0067 24.1556 21.6867 24.3156 21.42C24.4623 21.1667 24.669 20.94 24.9356 20.74C25.189 20.5533 25.489 20.3867 25.8356 20.24C26.1823 20.1067 26.5556 19.9733 26.9556 19.84V8.36C26.9556 7.65333 27.0423 7.08667 27.2156 6.66C27.4023 6.22 27.6356 5.88 27.9156 5.64C28.1956 5.4 28.5023 5.24 28.8356 5.16C29.1823 5.06667 29.5223 5.02 29.8556 5.02C30.8423 5.02 31.669 5.3 32.3356 5.86C32.629 5.52667 32.969 5.30667 33.3556 5.2C33.7423 5.08 34.1223 5.02 34.4956 5.02C35.4023 5.02 36.3156 5.16 37.2356 5.44C38.1556 5.72 39.1023 6.04 40.0756 6.4V16.8C40.0756 17.32 40.1423 17.68 40.2756 17.88C40.4223 18.08 40.709 18.18 41.1356 18.18C41.5223 18.18 41.8423 18.0133 42.0956 17.68C42.3623 17.3467 42.5156 16.9267 42.5556 16.42H43.3956C43.289 17.2333 43.0956 17.8867 42.8156 18.38C42.549 18.86 42.249 19.2333 41.9156 19.5C41.5956 19.7533 41.2556 19.92 40.8956 20C40.549 20.08 40.2423 20.12 39.9756 20.12C39.6023 20.12 39.249 20.0533 38.9156 19.92C38.5823 19.7733 38.289 19.5533 38.0356 19.26C37.7823 18.9533 37.5823 18.5667 37.4356 18.1C37.289 17.6333 37.2156 17.0733 37.2156 16.42V6.6C36.9223 6.49333 36.5956 6.41333 36.2356 6.36C35.8756 6.30667 35.629 6.28 35.4956 6.28C35.3756 6.28 35.2556 6.3 35.1356 6.34C35.0156 6.38 34.9023 6.45333 34.7956 6.56C34.7023 6.66667 34.6223 6.82 34.5556 7.02C34.5023 7.22 34.4756 7.48 34.4756 7.8V10H36.3556V10.8H34.4956V21.6C34.4956 22.2933 34.409 22.86 34.2356 23.3C34.0623 23.74 33.8356 24.0867 33.5556 24.34C33.289 24.5933 32.989 24.7667 32.6556 24.86C32.3356 24.9533 32.0156 25 31.6956 25C31.149 25 30.6756 24.9067 30.2756 24.72C29.8756 24.5333 29.5423 24.28 29.2756 23.96C28.9823 24.3733 28.6223 24.6467 28.1956 24.78C27.769 24.9267 27.3556 25 26.9556 25ZM29.8956 19.26L31.5756 18.96V10.8H29.8956V19.26ZM29.7556 22.88C29.8623 23.1467 30.0023 23.3133 30.1756 23.38C30.3623 23.46 30.509 23.5 30.6156 23.5C30.8823 23.5 31.109 23.36 31.2956 23.08C31.4956 22.8133 31.5956 22.34 31.5956 21.66V19.46L29.8956 19.84V21.6C29.8956 21.84 29.8823 22.0667 29.8556 22.28C29.8423 22.4933 29.809 22.6933 29.7556 22.88ZM31.5756 8.42C31.5756 8.06 31.5956 7.74 31.6356 7.46C31.689 7.16667 31.7556 6.90667 31.8356 6.68C31.6356 6.54667 31.409 6.48 31.1556 6.48C30.889 6.48 30.669 6.53333 30.4956 6.64C30.3223 6.74667 30.1823 6.88667 30.0756 7.06C29.9823 7.23333 29.9156 7.42667 29.8756 7.64C29.849 7.84 29.8356 8.04667 29.8356 8.26V10H31.5756V8.42ZM25.2556 22.28C25.2556 22.5467 25.3623 22.7667 25.5756 22.94C25.789 23.1267 26.009 23.22 26.2356 23.22C26.4356 23.22 26.629 23.1067 26.8156 22.88C27.0023 22.6533 27.0956 22.2467 27.0956 21.66V20.5C26.5623 20.6867 26.1223 20.9133 25.7756 21.18C25.429 21.46 25.2556 21.8267 25.2556 22.28ZM46.8416 18.22C47.2282 18.22 47.6149 18.1133 48.0016 17.9C48.3882 17.6867 48.7149 17.44 48.9816 17.16C48.9816 17.7333 48.9082 18.2133 48.7616 18.6C48.6282 18.9733 48.4349 19.2733 48.1816 19.5C47.9282 19.7267 47.6282 19.8867 47.2816 19.98C46.9482 20.0733 46.5749 20.12 46.1616 20.12C45.5882 20.12 45.0549 20.04 44.5616 19.88C44.0816 19.7067 43.6682 19.4333 43.3216 19.06C42.9749 18.6867 42.7016 18.2067 42.5016 17.62C42.3016 17.0333 42.2016 16.32 42.2016 15.48C42.2016 14.92 42.2616 14.3133 42.3816 13.66C42.5149 13.0067 42.7349 12.4067 43.0416 11.86C43.3482 11.3 43.7616 10.8333 44.2816 10.46C44.8149 10.0867 45.4816 9.9 46.2816 9.9C46.9482 9.9 47.4616 10 47.8216 10.2C48.1816 10.3867 48.4482 10.62 48.6216 10.9C48.7949 11.1667 48.8949 11.4467 48.9216 11.74C48.9482 12.02 48.9616 12.2467 48.9616 12.42C48.9616 12.9 48.8616 13.3533 48.6616 13.78C48.4616 14.1933 48.1882 14.56 47.8416 14.88C47.4949 15.1867 47.0882 15.44 46.6216 15.64C46.1682 15.8267 45.6749 15.9333 45.1416 15.96C45.2082 16.8267 45.4016 17.42 45.7216 17.74C46.0416 18.06 46.4149 18.22 46.8416 18.22ZM47.4016 12.3C47.4016 11.7933 47.3216 11.4467 47.1616 11.26C47.0149 11.06 46.8482 10.96 46.6616 10.96C46.4216 10.96 46.2082 11.0867 46.0216 11.34C45.8482 11.5933 45.6949 11.92 45.5616 12.32C45.4282 12.7067 45.3216 13.14 45.2416 13.62C45.1749 14.1 45.1349 14.56 45.1216 15C45.4549 14.9733 45.7616 14.8867 46.0416 14.74C46.3216 14.58 46.5616 14.38 46.7616 14.14C46.9616 13.9 47.1149 13.62 47.2216 13.3C47.3416 12.98 47.4016 12.6467 47.4016 12.3ZM62.8462 5.45455V20H61.1417L53.2156 8.57955H53.0735V20H51.3121V5.45455H53.0167L60.9712 16.9034H61.1133V5.45455H62.8462ZM69.3537 20.2557C68.6624 20.2557 68.035 20.1255 67.4716 19.8651C66.9081 19.5999 66.4607 19.2188 66.1293 18.7216C65.7978 18.2197 65.6321 17.6136 65.6321 16.9034C65.6321 16.2784 65.7552 15.7718 66.0014 15.3835C66.2476 14.9905 66.5767 14.6828 66.9886 14.4602C67.4006 14.2377 67.8551 14.072 68.3523 13.9631C68.8542 13.8494 69.3584 13.7595 69.8651 13.6932C70.5279 13.608 71.0653 13.544 71.4773 13.5014C71.8939 13.4541 72.197 13.3759 72.3864 13.267C72.5805 13.1581 72.6776 12.9687 72.6776 12.6989V12.642C72.6776 11.9413 72.4858 11.3968 72.1023 11.0085C71.7235 10.6203 71.1482 10.4261 70.3764 10.4261C69.5762 10.4261 68.9489 10.6013 68.4943 10.9517C68.0398 11.3021 67.7202 11.6761 67.5355 12.0739L65.9446 11.5057C66.2287 10.8428 66.6075 10.3267 67.081 9.95739C67.5592 9.58333 68.08 9.32292 68.6435 9.17614C69.2116 9.02462 69.7704 8.94886 70.3196 8.94886C70.67 8.94886 71.0724 8.99148 71.527 9.0767C71.9863 9.1572 72.429 9.32528 72.8551 9.58097C73.286 9.83665 73.6435 10.2225 73.9276 10.7386C74.2116 11.2547 74.3537 11.946 74.3537 12.8125V20H72.6776V18.5227H72.5923C72.4787 18.7595 72.2893 19.0128 72.0241 19.2827C71.759 19.5526 71.4063 19.7822 70.9659 19.9716C70.5256 20.161 69.9882 20.2557 69.3537 20.2557ZM69.6094 18.75C70.2723 18.75 70.831 18.6198 71.2855 18.3594C71.7448 18.099 72.0904 17.7628 72.3224 17.3509C72.5592 16.9389 72.6776 16.5057 72.6776 16.0511V14.517C72.6065 14.6023 72.4503 14.6804 72.2088 14.7514C71.9721 14.8177 71.6974 14.8769 71.3849 14.929C71.0772 14.9763 70.7765 15.0189 70.483 15.0568C70.1941 15.09 69.9598 15.1184 69.7798 15.142C69.3442 15.1989 68.937 15.2912 68.5582 15.419C68.1842 15.5421 67.8812 15.7292 67.6491 15.9801C67.4219 16.2263 67.3082 16.5625 67.3082 16.9886C67.3082 17.571 67.5237 18.0114 67.9545 18.3097C68.3902 18.6032 68.9418 18.75 69.6094 18.75ZM77.413 20V9.09091H79.0891V20H77.413ZM78.2653 7.27273C77.9386 7.27273 77.6568 7.16146 77.4201 6.93892C77.1881 6.71638 77.0721 6.44886 77.0721 6.13636C77.0721 5.82386 77.1881 5.55634 77.4201 5.33381C77.6568 5.11127 77.9386 5 78.2653 5C78.592 5 78.8713 5.11127 79.1033 5.33381C79.3401 5.55634 79.4585 5.82386 79.4585 6.13636C79.4585 6.44886 79.3401 6.71638 79.1033 6.93892C78.8713 7.16146 78.592 7.27273 78.2653 7.27273ZM82.1591 9.09091H83.8352V20.7955C83.8352 21.4678 83.7192 22.0502 83.4872 22.5426C83.2599 23.035 82.9143 23.4162 82.4503 23.6861C81.991 23.956 81.411 24.0909 80.7102 24.0909C80.6534 24.0909 80.5966 24.0909 80.5398 24.0909C80.483 24.0909 80.4261 24.0909 80.3693 24.0909V22.5284C80.4261 22.5284 80.4782 22.5284 80.5256 22.5284C80.5729 22.5284 80.625 22.5284 80.6818 22.5284C81.1932 22.5284 81.5672 22.3769 81.804 22.0739C82.0407 21.7756 82.1591 21.3494 82.1591 20.7955V9.09091ZM82.983 7.27273C82.6563 7.27273 82.3745 7.16146 82.1378 6.93892C81.9058 6.71638 81.7898 6.44886 81.7898 6.13636C81.7898 5.82386 81.9058 5.55634 82.1378 5.33381C82.3745 5.11127 82.6563 5 82.983 5C83.3097 5 83.589 5.11127 83.821 5.33381C84.0578 5.55634 84.1761 5.82386 84.1761 6.13636C84.1761 6.44886 84.0578 6.71638 83.821 6.93892C83.589 7.16146 83.3097 7.27273 82.983 7.27273ZM90.1154 20.2557C89.4241 20.2557 88.7968 20.1255 88.2333 19.8651C87.6699 19.5999 87.2224 19.2188 86.891 18.7216C86.5595 18.2197 86.3938 17.6136 86.3938 16.9034C86.3938 16.2784 86.5169 15.7718 86.7631 15.3835C87.0094 14.9905 87.3384 14.6828 87.7504 14.4602C88.1623 14.2377 88.6168 14.072 89.114 13.9631C89.6159 13.8494 90.1201 13.7595 90.6268 13.6932C91.2897 13.608 91.8271 13.544 92.239 13.5014C92.6557 13.4541 92.9587 13.3759 93.1481 13.267C93.3422 13.1581 93.4393 12.9687 93.4393 12.6989V12.642C93.4393 11.9413 93.2475 11.3968 92.864 11.0085C92.4852 10.6203 91.9099 10.4261 91.1381 10.4261C90.3379 10.4261 89.7106 10.6013 89.256 10.9517C88.8015 11.3021 88.4819 11.6761 88.2972 12.0739L86.7063 11.5057C86.9904 10.8428 87.3692 10.3267 87.8427 9.95739C88.3209 9.58333 88.8417 9.32292 89.4052 9.17614C89.9734 9.02462 90.5321 8.94886 91.0813 8.94886C91.4317 8.94886 91.8342 8.99148 92.2887 9.0767C92.748 9.1572 93.1907 9.32528 93.6168 9.58097C94.0477 9.83665 94.4052 10.2225 94.6893 10.7386C94.9734 11.2547 95.1154 11.946 95.1154 12.8125V20H93.4393V18.5227H93.354C93.2404 18.7595 93.051 19.0128 92.7859 19.2827C92.5207 19.5526 92.168 19.7822 91.7276 19.9716C91.2873 20.161 90.7499 20.2557 90.1154 20.2557ZM90.3711 18.75C91.034 18.75 91.5927 18.6198 92.0472 18.3594C92.5065 18.099 92.8522 17.7628 93.0842 17.3509C93.3209 16.9389 93.4393 16.5057 93.4393 16.0511V14.517C93.3683 14.6023 93.212 14.6804 92.9705 14.7514C92.7338 14.8177 92.4592 14.8769 92.1467 14.929C91.8389 14.9763 91.5382 15.0189 91.2447 15.0568C90.9558 15.09 90.7215 15.1184 90.5415 15.142C90.1059 15.1989 89.6987 15.2912 89.32 15.419C88.9459 15.5421 88.6429 15.7292 88.4109 15.9801C88.1836 16.2263 88.07 16.5625 88.07 16.9886C88.07 17.571 88.2854 18.0114 88.7163 18.3097C89.1519 18.6032 89.7035 18.75 90.3711 18.75Z" fill="#ffffff"/>
<path d="M1.32102 33L0.127841 28.6364H0.664773L1.5767 32.1903H1.61932L2.5483 28.6364H3.14489L4.07386 32.1903H4.11648L5.02841 28.6364H5.56534L4.37216 33H3.8267L2.86364 29.5227H2.82955L1.86648 33H1.32102ZM6.65838 31.0312V33H6.15554V28.6364H6.65838V30.2386H6.70099C6.7777 30.0696 6.89276 29.9354 7.04616 29.8359C7.20099 29.7351 7.40696 29.6847 7.66406 29.6847C7.88707 29.6847 8.08239 29.7294 8.25 29.8189C8.41761 29.907 8.54759 30.0426 8.63991 30.2259C8.73366 30.4077 8.78054 30.6392 8.78054 30.9205V33H8.2777V30.9545C8.2777 30.6946 8.21023 30.4936 8.07528 30.3516C7.94176 30.2081 7.75639 30.1364 7.51918 30.1364C7.3544 30.1364 7.20668 30.1712 7.07599 30.2408C6.94673 30.3104 6.84446 30.4119 6.76918 30.5455C6.69531 30.679 6.65838 30.8409 6.65838 31.0312ZM11.0726 33.0682C10.7573 33.0682 10.4853 32.9986 10.2566 32.8594C10.0293 32.7188 9.85387 32.5227 9.73029 32.2713C9.60813 32.0185 9.54705 31.7244 9.54705 31.3892C9.54705 31.054 9.60813 30.7585 9.73029 30.5028C9.85387 30.2457 10.0257 30.0455 10.2459 29.902C10.4675 29.7571 10.726 29.6847 11.0215 29.6847C11.1919 29.6847 11.3603 29.7131 11.5265 29.7699C11.6926 29.8267 11.8439 29.919 11.9803 30.0469C12.1167 30.1733 12.2253 30.3409 12.3063 30.5497C12.3873 30.7585 12.4277 31.0156 12.4277 31.321V31.5341H9.90501V31.0994H11.9164C11.9164 30.9148 11.8794 30.75 11.8056 30.6051C11.7331 30.4602 11.6294 30.3459 11.4945 30.2621C11.361 30.1783 11.2033 30.1364 11.0215 30.1364C10.8212 30.1364 10.6479 30.1861 10.5016 30.2855C10.3567 30.3835 10.2452 30.5114 10.1671 30.669C10.089 30.8267 10.0499 30.9957 10.0499 31.1761V31.4659C10.0499 31.7131 10.0925 31.9226 10.1777 32.0945C10.2644 32.2649 10.3844 32.3949 10.5378 32.4844C10.6912 32.5724 10.8695 32.6165 11.0726 32.6165C11.2047 32.6165 11.324 32.598 11.4306 32.5611C11.5385 32.5227 11.6316 32.4659 11.7097 32.3906C11.7878 32.3139 11.8482 32.2187 11.8908 32.1051L12.3766 32.2415C12.3255 32.4062 12.2395 32.5511 12.1188 32.6761C11.998 32.7997 11.8489 32.8963 11.6713 32.9659C11.4938 33.0341 11.2942 33.0682 11.0726 33.0682ZM13.1926 33V29.7273H13.6784V30.2216H13.7125C13.7722 30.0597 13.8801 29.9283 14.0364 29.8274C14.1926 29.7266 14.3688 29.6761 14.5648 29.6761C14.6017 29.6761 14.6479 29.6768 14.7033 29.6783C14.7587 29.6797 14.8006 29.6818 14.829 29.6847V30.196C14.812 30.1918 14.7729 30.1854 14.7118 30.1768C14.6522 30.1669 14.589 30.1619 14.5222 30.1619C14.3631 30.1619 14.2211 30.1953 14.0961 30.2621C13.9725 30.3274 13.8745 30.4183 13.802 30.5348C13.731 30.6499 13.6955 30.7812 13.6955 30.929V33H13.1926ZM16.6976 33.0682C16.3823 33.0682 16.1103 32.9986 15.8816 32.8594C15.6543 32.7188 15.4789 32.5227 15.3553 32.2713C15.2331 32.0185 15.1721 31.7244 15.1721 31.3892C15.1721 31.054 15.2331 30.7585 15.3553 30.5028C15.4789 30.2457 15.6507 30.0455 15.8709 29.902C16.0925 29.7571 16.351 29.6847 16.6465 29.6847C16.8169 29.6847 16.9853 29.7131 17.1515 29.7699C17.3176 29.8267 17.4689 29.919 17.6053 30.0469C17.7417 30.1733 17.8503 30.3409 17.9313 30.5497C18.0123 30.7585 18.0527 31.0156 18.0527 31.321V31.5341H15.53V31.0994H17.5414C17.5414 30.9148 17.5044 30.75 17.4306 30.6051C17.3581 30.4602 17.2544 30.3459 17.1195 30.2621C16.986 30.1783 16.8283 30.1364 16.6465 30.1364C16.4462 30.1364 16.2729 30.1861 16.1266 30.2855C15.9817 30.3835 15.8702 30.5114 15.7921 30.669C15.714 30.8267 15.6749 30.9957 15.6749 31.1761V31.4659C15.6749 31.7131 15.7175 31.9226 15.8027 32.0945C15.8894 32.2649 16.0094 32.3949 16.1628 32.4844C16.3162 32.5724 16.4945 32.6165 16.6976 32.6165C16.8297 32.6165 16.949 32.598 17.0556 32.5611C17.1635 32.5227 17.2566 32.4659 17.3347 32.3906C17.4128 32.3139 17.4732 32.2187 17.5158 32.1051L18.0016 32.2415C17.9505 32.4062 17.8645 32.5511 17.7438 32.6761C17.623 32.7997 17.4739 32.8963 17.2963 32.9659C17.1188 33.0341 16.9192 33.0682 16.6976 33.0682ZM20.5733 33V28.6364H23.2069V29.1051H21.1017V30.5795H23.0705V31.0483H21.1017V32.5312H23.2409V33H20.5733ZM26.7672 29.7273L25.557 33H25.0456L23.8354 29.7273H24.3809L25.2843 32.3352H25.3184L26.2218 29.7273H26.7672ZM28.6859 33.0682C28.3706 33.0682 28.0985 32.9986 27.8699 32.8594C27.6426 32.7188 27.4672 32.5227 27.3436 32.2713C27.2214 32.0185 27.1603 31.7244 27.1603 31.3892C27.1603 31.054 27.2214 30.7585 27.3436 30.5028C27.4672 30.2457 27.639 30.0455 27.8592 29.902C28.0808 29.7571 28.3393 29.6847 28.6348 29.6847C28.8052 29.6847 28.9735 29.7131 29.1397 29.7699C29.3059 29.8267 29.4572 29.919 29.5936 30.0469C29.7299 30.1733 29.8386 30.3409 29.9196 30.5497C30.0005 30.7585 30.041 31.0156 30.041 31.321V31.5341H27.5183V31.0994H29.5297C29.5297 30.9148 29.4927 30.75 29.4189 30.6051C29.3464 30.4602 29.2427 30.3459 29.1078 30.2621C28.9743 30.1783 28.8166 30.1364 28.6348 30.1364C28.4345 30.1364 28.2612 30.1861 28.1149 30.2855C27.97 30.3835 27.8585 30.5114 27.7804 30.669C27.7022 30.8267 27.6632 30.9957 27.6632 31.1761V31.4659C27.6632 31.7131 27.7058 31.9226 27.791 32.0945C27.8777 32.2649 27.9977 32.3949 28.1511 32.4844C28.3045 32.5724 28.4828 32.6165 28.6859 32.6165C28.818 32.6165 28.9373 32.598 29.0439 32.5611C29.1518 32.5227 29.2449 32.4659 29.323 32.3906C29.4011 32.3139 29.4615 32.2187 29.5041 32.1051L29.9899 32.2415C29.9387 32.4062 29.8528 32.5511 29.7321 32.6761C29.6113 32.7997 29.4622 32.8963 29.2846 32.9659C29.1071 33.0341 28.9075 33.0682 28.6859 33.0682ZM30.8059 33V29.7273H31.2917V30.2216H31.3258C31.3855 30.0597 31.4934 29.9283 31.6497 29.8274C31.8059 29.7266 31.9821 29.6761 32.1781 29.6761C32.215 29.6761 32.2612 29.6768 32.3166 29.6783C32.372 29.6797 32.4139 29.6818 32.4423 29.6847V30.196C32.4252 30.1918 32.3862 30.1854 32.3251 30.1768C32.2654 30.1669 32.2022 30.1619 32.1355 30.1619C31.9764 30.1619 31.8343 30.1953 31.7093 30.2621C31.5858 30.3274 31.4877 30.4183 31.4153 30.5348C31.3443 30.6499 31.3088 30.7812 31.3088 30.929V33H30.8059ZM33.4618 34.2273C33.3766 34.2273 33.3006 34.2202 33.2338 34.206C33.1671 34.1932 33.1209 34.1804 33.0953 34.1676L33.2232 33.7244C33.3453 33.7557 33.4533 33.767 33.5471 33.7585C33.6408 33.75 33.7239 33.7081 33.7963 33.6328C33.8702 33.5589 33.9377 33.4389 33.9988 33.2727L34.0925 33.017L32.8823 29.7273H33.4277L34.3311 32.3352H34.3652L35.2686 29.7273H35.8141L34.4249 33.4773C34.3624 33.6463 34.285 33.7862 34.1926 33.897C34.1003 34.0092 33.9931 34.0923 33.8709 34.1463C33.7502 34.2003 33.6138 34.2273 33.4618 34.2273ZM37.9949 29.1051V28.6364H41.2676V29.1051H39.8954V33H39.367V29.1051H37.9949ZM42.0149 33V29.7273H42.5178V33H42.0149ZM42.2706 29.1818C42.1726 29.1818 42.0881 29.1484 42.017 29.0817C41.9474 29.0149 41.9126 28.9347 41.9126 28.8409C41.9126 28.7472 41.9474 28.6669 42.017 28.6001C42.0881 28.5334 42.1726 28.5 42.2706 28.5C42.3686 28.5 42.4524 28.5334 42.522 28.6001C42.593 28.6669 42.6286 28.7472 42.6286 28.8409C42.6286 28.9347 42.593 29.0149 42.522 29.0817C42.4524 29.1484 42.3686 29.1818 42.2706 29.1818ZM44.7683 33.0682C44.4615 33.0682 44.1973 32.9957 43.9757 32.8509C43.7541 32.706 43.5836 32.5064 43.4643 32.2521C43.345 31.9979 43.2853 31.7074 43.2853 31.3807C43.2853 31.0483 43.3464 30.755 43.4686 30.5007C43.5922 30.245 43.764 30.0455 43.9842 29.902C44.2058 29.7571 44.4643 29.6847 44.7598 29.6847C44.9899 29.6847 45.1973 29.7273 45.3819 29.8125C45.5666 29.8977 45.7179 30.017 45.8358 30.1705C45.9537 30.3239 46.0268 30.5028 46.0552 30.7074H45.5524C45.514 30.5582 45.4288 30.4261 45.2967 30.3111C45.166 30.1946 44.9899 30.1364 44.7683 30.1364C44.5723 30.1364 44.4004 30.1875 44.2527 30.2898C44.1064 30.3906 43.992 30.5334 43.9096 30.718C43.8287 30.9013 43.7882 31.1165 43.7882 31.3636C43.7882 31.6165 43.8279 31.8366 43.9075 32.0241C43.9885 32.2116 44.1021 32.3572 44.2484 32.4609C44.3961 32.5646 44.5694 32.6165 44.7683 32.6165C44.899 32.6165 45.0176 32.5938 45.1241 32.5483C45.2306 32.5028 45.3208 32.4375 45.3947 32.3523C45.4686 32.267 45.5211 32.1648 45.5524 32.0455H46.0552C46.0268 32.2386 45.9565 32.4126 45.8443 32.5675C45.7335 32.7209 45.5865 32.843 45.4032 32.9339C45.2214 33.0234 45.0098 33.0682 44.7683 33.0682ZM47.2591 31.8068L47.2505 31.1847H47.3528L48.7846 29.7273H49.4068L47.8812 31.2699H47.8386L47.2591 31.8068ZM46.7903 33V28.6364H47.2931V33H46.7903ZM48.8699 33L47.5914 31.3807L47.9494 31.0312L49.5091 33H48.8699ZM51.2914 33.0682C50.976 33.0682 50.704 32.9986 50.4753 32.8594C50.248 32.7188 50.0726 32.5227 49.949 32.2713C49.8269 32.0185 49.7658 31.7244 49.7658 31.3892C49.7658 31.054 49.8269 30.7585 49.949 30.5028C50.0726 30.2457 50.2445 30.0455 50.4647 29.902C50.6863 29.7571 50.9448 29.6847 51.2402 29.6847C51.4107 29.6847 51.579 29.7131 51.7452 29.7699C51.9114 29.8267 52.0627 29.919 52.199 30.0469C52.3354 30.1733 52.4441 30.3409 52.525 30.5497C52.606 30.7585 52.6465 31.0156 52.6465 31.321V31.5341H50.1238V31.0994H52.1351C52.1351 30.9148 52.0982 30.75 52.0243 30.6051C51.9519 30.4602 51.8482 30.3459 51.7132 30.2621C51.5797 30.1783 51.4221 30.1364 51.2402 30.1364C51.04 30.1364 50.8667 30.1861 50.7203 30.2855C50.5755 30.3835 50.464 30.5114 50.3858 30.669C50.3077 30.8267 50.2686 30.9957 50.2686 31.1761V31.4659C50.2686 31.7131 50.3113 31.9226 50.3965 32.0945C50.4831 32.2649 50.6032 32.3949 50.7566 32.4844C50.91 32.5724 51.0882 32.6165 51.2914 32.6165C51.4235 32.6165 51.5428 32.598 51.6493 32.5611C51.7573 32.5227 51.8503 32.4659 51.9284 32.3906C52.0066 32.3139 52.0669 32.2187 52.1096 32.1051L52.5953 32.2415C52.5442 32.4062 52.4583 32.5511 52.3375 32.6761C52.2168 32.7997 52.0676 32.8963 51.8901 32.9659C51.7125 33.0341 51.513 33.0682 51.2914 33.0682ZM54.8347 29.7273V30.1534H53.1387V29.7273H54.8347ZM53.633 28.9432H54.1358V32.0625C54.1358 32.2045 54.1564 32.3111 54.1976 32.3821C54.2402 32.4517 54.2942 32.4986 54.3596 32.5227C54.4263 32.5455 54.4966 32.5568 54.5705 32.5568C54.6259 32.5568 54.6713 32.554 54.7069 32.5483C54.7424 32.5412 54.7708 32.5355 54.7921 32.5312L54.8944 32.983C54.8603 32.9957 54.8127 33.0085 54.7516 33.0213C54.6905 33.0355 54.6131 33.0426 54.5194 33.0426C54.3773 33.0426 54.2381 33.0121 54.1017 32.951C53.9668 32.8899 53.8546 32.7969 53.7651 32.6719C53.677 32.5469 53.633 32.3892 53.633 32.1989V28.9432ZM57.7814 31.0312V33H57.2786V28.6364H57.7814V30.2386H57.824C57.9007 30.0696 58.0158 29.9354 58.1692 29.8359C58.324 29.7351 58.53 29.6847 58.7871 29.6847C59.0101 29.6847 59.2054 29.7294 59.373 29.8189C59.5407 29.907 59.6706 30.0426 59.763 30.2259C59.8567 30.4077 59.9036 30.6392 59.9036 30.9205V33H59.4007V30.9545C59.4007 30.6946 59.3333 30.4936 59.1983 30.3516C59.0648 30.2081 58.8794 30.1364 58.6422 30.1364C58.4775 30.1364 58.3297 30.1712 58.199 30.2408C58.0698 30.3104 57.9675 30.4119 57.8922 30.5455C57.8184 30.679 57.7814 30.8409 57.7814 31.0312ZM62.1531 33.0682C61.8576 33.0682 61.5984 32.9979 61.3754 32.8572C61.1538 32.7166 60.9805 32.5199 60.8555 32.267C60.7319 32.0142 60.6701 31.7187 60.6701 31.3807C60.6701 31.0398 60.7319 30.7422 60.8555 30.4879C60.9805 30.2337 61.1538 30.0362 61.3754 29.8956C61.5984 29.755 61.8576 29.6847 62.1531 29.6847C62.4485 29.6847 62.707 29.755 62.9286 29.8956C63.1516 30.0362 63.3249 30.2337 63.4485 30.4879C63.5735 30.7422 63.636 31.0398 63.636 31.3807C63.636 31.7187 63.5735 32.0142 63.4485 32.267C63.3249 32.5199 63.1516 32.7166 62.9286 32.8572C62.707 32.9979 62.4485 33.0682 62.1531 33.0682ZM62.1531 32.6165C62.3775 32.6165 62.5621 32.5589 62.707 32.4439C62.8519 32.3288 62.9592 32.1776 63.0288 31.9901C63.0984 31.8026 63.1332 31.5994 63.1332 31.3807C63.1332 31.1619 63.0984 30.9581 63.0288 30.7692C62.9592 30.5803 62.8519 30.4276 62.707 30.3111C62.5621 30.1946 62.3775 30.1364 62.1531 30.1364C61.9286 30.1364 61.744 30.1946 61.5991 30.3111C61.4542 30.4276 61.3469 30.5803 61.2773 30.7692C61.2077 30.9581 61.1729 31.1619 61.1729 31.3807C61.1729 31.5994 61.2077 31.8026 61.2773 31.9901C61.3469 32.1776 61.4542 32.3288 61.5991 32.4439C61.744 32.5589 61.9286 32.6165 62.1531 32.6165ZM64.9064 28.6364V33H64.4036V28.6364H64.9064ZM67.0632 33.0682C66.7905 33.0682 66.5497 32.9993 66.3409 32.8615C66.1321 32.7223 65.9688 32.5263 65.8509 32.2734C65.733 32.0192 65.674 31.7188 65.674 31.3722C65.674 31.0284 65.733 30.7301 65.8509 30.4773C65.9688 30.2244 66.1328 30.0291 66.343 29.8913C66.5533 29.7536 66.7962 29.6847 67.0717 29.6847C67.2848 29.6847 67.4531 29.7202 67.5767 29.7912C67.7017 29.8608 67.7969 29.9403 67.8622 30.0298C67.929 30.1179 67.9808 30.1903 68.0178 30.2472H68.0604V28.6364H68.5632V33H68.0774V32.4972H68.0178C67.9808 32.5568 67.9283 32.6321 67.8601 32.723C67.7919 32.8125 67.6946 32.8928 67.5682 32.9638C67.4418 33.0334 67.2734 33.0682 67.0632 33.0682ZM67.1314 32.6165C67.3331 32.6165 67.5036 32.5639 67.6428 32.4588C67.782 32.3523 67.8878 32.2053 67.9602 32.0178C68.0327 31.8288 68.0689 31.6108 68.0689 31.3636C68.0689 31.1193 68.0334 30.9055 67.9624 30.7223C67.8913 30.5376 67.7862 30.3942 67.647 30.2919C67.5078 30.1882 67.3359 30.1364 67.1314 30.1364C66.9183 30.1364 66.7408 30.1911 66.5987 30.3004C66.4581 30.4084 66.3523 30.5554 66.2812 30.7415C66.2116 30.9261 66.1768 31.1335 66.1768 31.3636C66.1768 31.5966 66.2124 31.8082 66.2834 31.9986C66.3558 32.1875 66.4624 32.3381 66.603 32.4503C66.745 32.5611 66.9212 32.6165 67.1314 32.6165ZM71.8722 30.4602L71.4205 30.5881C71.392 30.5128 71.3501 30.4396 71.2947 30.3686C71.2408 30.2962 71.1669 30.2365 71.0732 30.1896C70.9794 30.1428 70.8594 30.1193 70.7131 30.1193C70.5128 30.1193 70.3459 30.1655 70.2124 30.2578C70.0803 30.3487 70.0142 30.4645 70.0142 30.6051C70.0142 30.7301 70.0597 30.8288 70.1506 30.9013C70.2415 30.9737 70.3835 31.0341 70.5767 31.0824L71.0625 31.2017C71.3551 31.2727 71.5732 31.3814 71.7166 31.5277C71.8601 31.6726 71.9318 31.8594 71.9318 32.0881C71.9318 32.2756 71.8778 32.4432 71.7699 32.5909C71.6634 32.7386 71.5142 32.8551 71.3224 32.9403C71.1307 33.0256 70.9077 33.0682 70.6534 33.0682C70.3196 33.0682 70.0433 32.9957 69.8246 32.8509C69.6058 32.706 69.4673 32.4943 69.4091 32.2159L69.8864 32.0966C69.9318 32.2727 70.0178 32.4048 70.1442 32.4929C70.272 32.581 70.4389 32.625 70.6449 32.625C70.8793 32.625 71.0653 32.5753 71.2031 32.4759C71.3423 32.375 71.4119 32.2543 71.4119 32.1136C71.4119 32 71.3722 31.9048 71.2926 31.8281C71.2131 31.75 71.0909 31.6918 70.9261 31.6534L70.3807 31.5256C70.081 31.4545 69.8608 31.3445 69.7202 31.1953C69.581 31.0447 69.5114 30.8565 69.5114 30.6307C69.5114 30.446 69.5632 30.2827 69.6669 30.1406C69.772 29.9986 69.9148 29.8871 70.0952 29.8061C70.277 29.7251 70.483 29.6847 70.7131 29.6847C71.0369 29.6847 71.2912 29.7557 71.4759 29.8977C71.6619 30.0398 71.794 30.2273 71.8722 30.4602ZM75.3393 33.0767C75.1319 33.0767 74.9437 33.0376 74.7747 32.9595C74.6056 32.88 74.4714 32.7656 74.372 32.6165C74.2725 32.4659 74.2228 32.2841 74.2228 32.071C74.2228 31.8835 74.2598 31.7315 74.3336 31.6151C74.4075 31.4972 74.5062 31.4048 74.6298 31.3381C74.7534 31.2713 74.8897 31.2216 75.0389 31.1889C75.1895 31.1548 75.3407 31.1278 75.4927 31.108C75.6916 31.0824 75.8528 31.0632 75.9764 31.0504C76.1014 31.0362 76.1923 31.0128 76.2491 30.9801C76.3074 30.9474 76.3365 30.8906 76.3365 30.8097V30.7926C76.3365 30.5824 76.2789 30.419 76.1639 30.3026C76.0502 30.1861 75.8777 30.1278 75.6461 30.1278C75.4061 30.1278 75.2179 30.1804 75.0815 30.2855C74.9451 30.3906 74.8493 30.5028 74.7939 30.6222L74.3166 30.4517C74.4018 30.2528 74.5154 30.098 74.6575 29.9872C74.801 29.875 74.9572 29.7969 75.1262 29.7528C75.2967 29.7074 75.4643 29.6847 75.6291 29.6847C75.7342 29.6847 75.8549 29.6974 75.9913 29.723C76.1291 29.7472 76.2619 29.7976 76.3897 29.8743C76.519 29.951 76.6262 30.0668 76.7115 30.2216C76.7967 30.3764 76.8393 30.5838 76.8393 30.8438V33H76.3365V32.5568H76.3109C76.2768 32.6278 76.22 32.7038 76.1404 32.7848C76.0609 32.8658 75.9551 32.9347 75.823 32.9915C75.6909 33.0483 75.5297 33.0767 75.3393 33.0767ZM75.416 32.625C75.6149 32.625 75.7825 32.5859 75.9189 32.5078C76.0566 32.4297 76.1603 32.3288 76.2299 32.2053C76.301 32.0817 76.3365 31.9517 76.3365 31.8153V31.3551C76.3152 31.3807 76.2683 31.4041 76.1958 31.4254C76.1248 31.4453 76.0424 31.4631 75.9487 31.4787C75.8564 31.4929 75.7662 31.5057 75.6781 31.517C75.5914 31.527 75.5211 31.5355 75.4672 31.5426C75.3365 31.5597 75.2143 31.5874 75.1007 31.6257C74.9885 31.6626 74.8975 31.7187 74.8279 31.794C74.7598 31.8679 74.7257 31.9687 74.7257 32.0966C74.7257 32.2713 74.7903 32.4034 74.9196 32.4929C75.0502 32.581 75.2157 32.625 75.416 32.625ZM80.7741 33.0682C80.4673 33.0682 80.2031 32.9957 79.9815 32.8509C79.7599 32.706 79.5895 32.5064 79.4702 32.2521C79.3509 31.9979 79.2912 31.7074 79.2912 31.3807C79.2912 31.0483 79.3523 30.755 79.4744 30.5007C79.598 30.245 79.7699 30.0455 79.9901 29.902C80.2116 29.7571 80.4702 29.6847 80.7656 29.6847C80.9957 29.6847 81.2031 29.7273 81.3878 29.8125C81.5724 29.8977 81.7237 30.017 81.8416 30.1705C81.9595 30.3239 82.0327 30.5028 82.0611 30.7074H81.5582C81.5199 30.5582 81.4347 30.4261 81.3026 30.3111C81.1719 30.1946 80.9957 30.1364 80.7741 30.1364C80.5781 30.1364 80.4063 30.1875 80.2585 30.2898C80.1122 30.3906 79.9979 30.5334 79.9155 30.718C79.8345 30.9013 79.794 31.1165 79.794 31.3636C79.794 31.6165 79.8338 31.8366 79.9134 32.0241C79.9943 32.2116 80.108 32.3572 80.2543 32.4609C80.402 32.5646 80.5753 32.6165 80.7741 32.6165C80.9048 32.6165 81.0234 32.5938 81.13 32.5483C81.2365 32.5028 81.3267 32.4375 81.4006 32.3523C81.4744 32.267 81.527 32.1648 81.5582 32.0455H82.0611C82.0327 32.2386 81.9624 32.4126 81.8501 32.5675C81.7393 32.7209 81.5923 32.843 81.4091 32.9339C81.2273 33.0234 81.0156 33.0682 80.7741 33.0682ZM83.299 31.0312V33H82.7962V28.6364H83.299V30.2386H83.3416C83.4183 30.0696 83.5334 29.9354 83.6868 29.8359C83.8416 29.7351 84.0476 29.6847 84.3047 29.6847C84.5277 29.6847 84.723 29.7294 84.8906 29.8189C85.0582 29.907 85.1882 30.0426 85.2805 30.2259C85.3743 30.4077 85.4212 30.6392 85.4212 30.9205V33H84.9183V30.9545C84.9183 30.6946 84.8509 30.4936 84.7159 30.3516C84.5824 30.2081 84.397 30.1364 84.1598 30.1364C83.995 30.1364 83.8473 30.1712 83.7166 30.2408C83.5874 30.3104 83.4851 30.4119 83.4098 30.5455C83.3359 30.679 83.299 30.8409 83.299 31.0312ZM87.3042 33.0767C87.0968 33.0767 86.9086 33.0376 86.7395 32.9595C86.5705 32.88 86.4363 32.7656 86.3368 32.6165C86.2374 32.4659 86.1877 32.2841 86.1877 32.071C86.1877 31.8835 86.2246 31.7315 86.2985 31.6151C86.3723 31.4972 86.4711 31.4048 86.5946 31.3381C86.7182 31.2713 86.8546 31.2216 87.0037 31.1889C87.1543 31.1548 87.3056 31.1278 87.4576 31.108C87.6564 31.0824 87.8176 31.0632 87.9412 31.0504C88.0662 31.0362 88.1571 31.0128 88.214 30.9801C88.2722 30.9474 88.3013 30.8906 88.3013 30.8097V30.7926C88.3013 30.5824 88.2438 30.419 88.1287 30.3026C88.0151 30.1861 87.8425 30.1278 87.611 30.1278C87.3709 30.1278 87.1827 30.1804 87.0463 30.2855C86.91 30.3906 86.8141 30.5028 86.7587 30.6222L86.2814 30.4517C86.3667 30.2528 86.4803 30.098 86.6223 29.9872C86.7658 29.875 86.9221 29.7969 87.0911 29.7528C87.2615 29.7074 87.4292 29.6847 87.5939 29.6847C87.699 29.6847 87.8198 29.6974 87.9561 29.723C88.0939 29.7472 88.2267 29.7976 88.3546 29.8743C88.4838 29.951 88.5911 30.0668 88.6763 30.2216C88.7615 30.3764 88.8042 30.5838 88.8042 30.8438V33H88.3013V32.5568H88.2757C88.2417 32.6278 88.1848 32.7038 88.1053 32.7848C88.0257 32.8658 87.9199 32.9347 87.7878 32.9915C87.6557 33.0483 87.4945 33.0767 87.3042 33.0767ZM87.3809 32.625C87.5797 32.625 87.7473 32.5859 87.8837 32.5078C88.0215 32.4297 88.1252 32.3288 88.1948 32.2053C88.2658 32.0817 88.3013 31.9517 88.3013 31.8153V31.3551C88.28 31.3807 88.2331 31.4041 88.1607 31.4254C88.0897 31.4453 88.0073 31.4631 87.9135 31.4787C87.8212 31.4929 87.731 31.5057 87.6429 31.517C87.5563 31.527 87.486 31.5355 87.432 31.5426C87.3013 31.5597 87.1792 31.5874 87.0655 31.6257C86.9533 31.6626 86.8624 31.7187 86.7928 31.794C86.7246 31.8679 86.6905 31.9687 86.6905 32.0966C86.6905 32.2713 86.7551 32.4034 86.8844 32.4929C87.0151 32.581 87.1806 32.625 87.3809 32.625ZM90.2248 31.0312V33H89.7219V29.7273H90.2077V30.2386H90.2504C90.3271 30.0724 90.4435 29.9389 90.5998 29.8381C90.756 29.7358 90.9577 29.6847 91.2049 29.6847C91.4265 29.6847 91.6204 29.7301 91.7866 29.821C91.9528 29.9105 92.082 30.0469 92.1744 30.2301C92.2667 30.4119 92.3129 30.642 92.3129 30.9205V33H91.81V30.9545C91.81 30.6974 91.7433 30.4972 91.6097 30.3537C91.4762 30.2088 91.293 30.1364 91.06 30.1364C90.8995 30.1364 90.756 30.1712 90.6296 30.2408C90.5046 30.3104 90.4059 30.4119 90.3335 30.5455C90.261 30.679 90.2248 30.8409 90.2248 31.0312ZM94.5613 33.0682C94.2544 33.0682 93.9902 32.9957 93.7686 32.8509C93.5471 32.706 93.3766 32.5064 93.2573 32.2521C93.138 31.9979 93.0783 31.7074 93.0783 31.3807C93.0783 31.0483 93.1394 30.755 93.2615 30.5007C93.3851 30.245 93.557 30.0455 93.7772 29.902C93.9988 29.7571 94.2573 29.6847 94.5527 29.6847C94.7828 29.6847 94.9902 29.7273 95.1749 29.8125C95.3596 29.8977 95.5108 30.017 95.6287 30.1705C95.7466 30.3239 95.8198 30.5028 95.8482 30.7074H95.3453C95.307 30.5582 95.2218 30.4261 95.0897 30.3111C94.959 30.1946 94.7828 30.1364 94.5613 30.1364C94.3652 30.1364 94.1934 30.1875 94.0456 30.2898C93.8993 30.3906 93.785 30.5334 93.7026 30.718C93.6216 30.9013 93.5811 31.1165 93.5811 31.3636C93.5811 31.6165 93.6209 31.8366 93.7005 32.0241C93.7814 32.2116 93.8951 32.3572 94.0414 32.4609C94.1891 32.5646 94.3624 32.6165 94.5613 32.6165C94.6919 32.6165 94.8105 32.5938 94.9171 32.5483C95.0236 32.5028 95.1138 32.4375 95.1877 32.3523C95.2615 32.267 95.3141 32.1648 95.3453 32.0455H95.8482C95.8198 32.2386 95.7495 32.4126 95.6373 32.5675C95.5265 32.7209 95.3794 32.843 95.1962 32.9339C95.0144 33.0234 94.8027 33.0682 94.5613 33.0682ZM97.9554 33.0682C97.6401 33.0682 97.3681 32.9986 97.1394 32.8594C96.9121 32.7188 96.7367 32.5227 96.6131 32.2713C96.4909 32.0185 96.4299 31.7244 96.4299 31.3892C96.4299 31.054 96.4909 30.7585 96.6131 30.5028C96.7367 30.2457 96.9086 30.0455 97.1287 29.902C97.3503 29.7571 97.6088 29.6847 97.9043 29.6847C98.0748 29.6847 98.2431 29.7131 98.4093 29.7699C98.5755 29.8267 98.7267 29.919 98.8631 30.0469C98.9995 30.1733 99.1081 30.3409 99.1891 30.5497C99.2701 30.7585 99.3105 31.0156 99.3105 31.321V31.5341H96.7878V31.0994H98.7992C98.7992 30.9148 98.7623 30.75 98.6884 30.6051C98.6159 30.4602 98.5123 30.3459 98.3773 30.2621C98.2438 30.1783 98.0861 30.1364 97.9043 30.1364C97.704 30.1364 97.5307 30.1861 97.3844 30.2855C97.2395 30.3835 97.128 30.5114 97.0499 30.669C96.9718 30.8267 96.9327 30.9957 96.9327 31.1761V31.4659C96.9327 31.7131 96.9753 31.9226 97.0605 32.0945C97.1472 32.2649 97.2672 32.3949 97.4206 32.4844C97.574 32.5724 97.7523 32.6165 97.9554 32.6165C98.0875 32.6165 98.2069 32.598 98.3134 32.5611C98.4213 32.5227 98.5144 32.4659 98.5925 32.3906C98.6706 32.3139 98.731 32.2187 98.7736 32.1051L99.2594 32.2415C99.2083 32.4062 99.1223 32.5511 99.0016 32.6761C98.8809 32.7997 98.7317 32.8963 98.5542 32.9659C98.3766 33.0341 98.177 33.0682 97.9554 33.0682Z" fill="#ffffff"/>
</svg>
